<svg xmlns="http://www.w3.org/2000/svg" viewBox="0 0 120 120" role="img" aria-labelledby="title desc">
  <title id="title">Interview Armor logo mark</title>
  <desc id="desc">A crimson circular crest with a stylized interview armor helmet.</desc>
  <defs>
    <radialGradient id="paperRed" cx="50%" cy="35%" r="60%">
      <stop offset="0%" stop-color="#b63a32"/>
      <stop offset="100%" stop-color="#7f1517"/>
    </radialGradient>
    <filter id="softShadow" x="-20%" y="-20%" width="140%" height="140%">
      <feDropShadow dx="0" dy="3" stdDeviation="3" flood-color="#1a1713" flood-opacity=".25"/>
    </filter>
  </defs>
  <circle cx="60" cy="60" r="52" fill="#fbf3df"/>
  <circle cx="60" cy="60" r="48" fill="url(#paperRed)" filter="url(#softShadow)"/>
  <path d="M31 75h58c-4 14-15 22-29 22S35 89 31 75Z" fill="#fbf3df"/>
  <path d="M38 70c2-21 11-35 22-35s20 14 22 35H38Z" fill="#fbf3df"/>
  <path d="M33 47c12 4 20 2 27-7 7 9 15 11 27 7-5 11-14 17-27 17S38 58 33 47Z" fill="#fbf3df"/>
  <path d="M45 75c5 4 10 6 15 6s10-2 15-6" fill="none" stroke="#7f1517" stroke-width="5" stroke-linecap="round"/>
  <path d="M45 88h30" stroke="#7f1517" stroke-width="5" stroke-linecap="round"/>
</svg>