<svg xmlns="http://www.w3.org/2000/svg" viewBox="0 0 360 360" preserveAspectRatio="xMidYMax slice">
  <rect width="360" height="360" fill="#12110f"/>
  <circle cx="250" cy="116" r="32" fill="#991b1e" opacity=".82"/>
  <path d="M0 310C58 214 100 230 143 158c56 86 93 86 144 15 38 71 73 89 115 58v129H0Z" fill="#f4ead3" opacity=".58"/>
  <path d="M0 329c66-61 125-86 183-75 70 13 105-13 178-41" fill="none" stroke="#f4ead3" stroke-width="9" opacity=".32" stroke-linecap="round"/>
  <path d="M73 275c27-36 55-45 84-28 22 12 47 10 76-7" fill="none" stroke="#0e0e0d" stroke-width="10" opacity=".5" stroke-linecap="round"/>
  <path d="M56 325h244" stroke="#f4ead3" stroke-width="8" opacity=".18" stroke-linecap="round"/>
  <path d="M72 194c17-8 33-8 49 0M98 175c12-6 24-6 36 0" stroke="#f4ead3" stroke-width="4" opacity=".35" stroke-linecap="round"/>
  <path d="M45 242c26-8 45-22 56-41 12 23 33 36 62 39" fill="none" stroke="#f4ead3" stroke-width="6" opacity=".24" stroke-linecap="round"/>
</svg>